<svg width="98" height="83" viewBox="0 0 98 83" fill="none" xmlns="http://www.w3.org/2000/svg">
<rect x="24.8172" y="31.817" width="14.9221" height="14.7444" fill="#FAFF14"/>
<rect x="41.31" y="48.8895" width="14.9221" height="14.7444" fill="#FAFF14"/>
<rect x="24.8172" y="48.8895" width="14.9221" height="14.7444" fill="#FAFF14"/>
<rect x="41.31" y="31.817" width="14.9221" height="14.7444" fill="#FAFF14"/>
<path d="M40.9173 0L65.6565 39.5772L40.9173 4.85014L15 40.5472L40.9173 0Z" fill="#735314"/>
<path d="M4.758 72.25C5.28667 72.25 5.668 72.3973 5.902 72.692C6.14467 72.978 6.266 73.407 6.266 73.979V80.232C6.266 80.856 6.162 81.3067 5.954 81.584C5.746 81.8613 5.369 82 4.823 82H2.327C1.495 82 1.00533 81.688 0.858 81.064C0.806 80.8733 0.78 80.661 0.78 80.427V73.979C0.78 73.3983 0.875333 72.978 1.066 72.718C1.28267 72.406 1.66833 72.25 2.223 72.25H4.758ZM1.82 81.116H5.226V73.134H1.82V81.116ZM13.0259 81.116V82H11.5439L8.2809 77.151V81.116H9.1259V82H6.3959V81.116H7.2149V73.134H6.3959V72.25H9.1259V73.134H8.2289V76.761L11.5439 72.25H12.9479V73.134H12.0769L9.3729 76.93L12.1939 81.116H13.0259ZM19.2654 73.134V81.116H20.0844V82H17.4064V81.116H18.1994V77.398H14.5854V81.116H15.3784V82H12.7004V81.116H13.5194V73.134H12.7004V72.25H15.3784V73.134H14.5854V76.527H18.1994V73.134H17.4064V72.25H20.0844V73.134H19.2654ZM24.751 77.71L23.594 73.134L22.437 77.71H24.751ZM27.442 81.116V82H24.907V81.116H25.609L24.959 78.529H22.229L21.579 81.116H22.294V82H19.759V81.116H20.578L22.84 72.25H24.374L26.597 81.116H27.442ZM37.91 82.078L36.038 79.907V80.388C36.038 80.9947 35.9514 81.4063 35.778 81.623C35.57 81.883 35.154 82.013 34.53 82.013H32.047C31.319 82.013 30.8684 81.8873 30.695 81.636C30.591 81.4973 30.5304 81.311 30.513 81.077C30.4957 80.843 30.487 80.544 30.487 80.18V78.438L33.009 76.28L31.813 74.85V73.797C31.813 73.173 31.8737 72.7787 31.995 72.614C32.1164 72.4493 32.268 72.3367 32.45 72.276C32.6407 72.2067 32.9007 72.172 33.23 72.172H34.075C34.8117 72.172 35.2797 72.2977 35.479 72.549C35.583 72.6877 35.648 72.874 35.674 73.108C35.7087 73.342 35.726 73.641 35.726 74.005V75.201L34.322 76.332L35.427 77.658L36.974 76.384L37.598 77.086L36.038 78.373L38.625 81.48L37.91 82.078ZM33.75 75.63L34.855 74.733V73.979C34.855 73.5717 34.8247 73.329 34.764 73.251C34.7034 73.1643 34.621 73.1123 34.517 73.095C34.413 73.069 34.2657 73.056 34.075 73.056H33.516C33.1607 73.056 32.944 73.095 32.866 73.173C32.788 73.251 32.7404 73.3463 32.723 73.459C32.7144 73.563 32.71 73.6973 32.71 73.862V74.577L33.75 75.63ZM34.387 81.129C34.7424 81.129 34.9504 81.09 35.011 81.012C35.0804 80.934 35.1194 80.843 35.128 80.739C35.1367 80.635 35.141 80.4963 35.141 80.323V78.841L33.581 76.93L31.358 78.906V80.206C31.358 80.6047 31.3927 80.8473 31.462 80.934C31.5314 81.0207 31.6224 81.077 31.735 81.103C31.8477 81.1203 31.9994 81.129 32.19 81.129H34.387ZM46.7396 77.216C47.6322 77.762 48.0786 78.3773 48.0786 79.062V80.466C48.0786 81.0553 47.9572 81.4627 47.7146 81.688C47.4892 81.896 47.1036 82 46.5576 82H41.8646V81.116H42.6836V73.134H41.8646V72.25H47.7406V74.655H46.8566V73.134H43.7496V75.331L46.7396 77.216ZM47.0126 78.451L43.7496 76.397V81.116H47.0126V78.451ZM52.8711 77.71L51.7141 73.134L50.5571 77.71H52.8711ZM55.5621 81.116V82H53.0271V81.116H53.7291L53.0791 78.529H50.3491L49.6991 81.116H50.4141V82H47.8791V81.116H48.6981L50.9601 72.25H52.4941L54.7171 81.116H55.5621ZM62.3952 81.103V82H59.7952V81.103H60.5622V73.134H59.8472L57.1692 80.713C56.9439 81.571 56.4412 82 55.6612 82H54.9072V81.116H56.0382L58.8722 73.134H57.8452V72.25H61.6282V81.103H62.3952ZM68.8269 81.116V82H67.3449L64.0819 77.151V81.116H64.9269V82H62.1969V81.116H63.0159V73.134H62.1969V72.25H64.9269V73.134H64.0299V76.761L67.3449 72.25H68.7489V73.134H67.8779L65.1739 76.93L67.9949 81.116H68.8269ZM72.2031 72.25C72.7318 72.25 73.1131 72.3973 73.3471 72.692C73.5898 72.978 73.7111 73.407 73.7111 73.979V80.232C73.7111 80.856 73.6071 81.3067 73.3991 81.584C73.1911 81.8613 72.8141 82 72.2681 82H69.7721C68.9401 82 68.4504 81.688 68.3031 81.064C68.2511 80.8733 68.2251 80.661 68.2251 80.427V73.979C68.2251 73.3983 68.3204 72.978 68.5111 72.718C68.7278 72.406 69.1134 72.25 69.6681 72.25H72.2031ZM69.2651 81.116H72.6711V73.134H69.2651V81.116ZM80.406 73.134V81.116H81.225V82H78.547V81.116H79.34V77.398H75.726V81.116H76.519V82H73.841V81.116H74.66V73.134H73.841V72.25H76.519V73.134H75.726V76.527H79.34V73.134H78.547V72.25H81.225V73.134H80.406ZM86.0996 77.866C86.9143 78.3687 87.3216 78.984 87.3216 79.712V80.466C87.3216 81.0553 87.2306 81.4627 87.0486 81.688C86.8753 81.896 86.5546 82 86.0866 82H81.2246V81.116H82.0436V73.134H81.2246V72.25H84.0196V73.134H83.1096V75.981L86.0996 77.866ZM86.3726 79.101L83.1096 77.047V81.116H86.3726V79.101ZM90.0516 81.116H90.8966V82H88.1666V81.116H88.9856V73.134H88.1666V72.25H90.8966V73.134H90.0516V81.116Z" fill="#116F14"/>
</svg>
